name analog
datacolumns 19
datarows 46
range 0.1675 0.19
endheader
time	ground_force_vx	ground_force_vy	ground_force_vz	ground_force_px	ground_force_py	ground_force_pz	l_ground_force_vx	l_ground_force_vy	l_ground_force_vz	l_ground_force_px	l_ground_force_py	l_ground_force_pz	ground_torque_x	ground_torque_y	ground_torque_z	l_ground_torque_x	l_ground_torque_y	l_ground_torque_z
0.1675	-0.0	-0.0	-0.0	-0.0	-0.0	-0.0	-8.836779594421387	4.6639909744262695	-744.9429931640625	-0.0	-0.0	-0.0	-0.0	-0.0	-0.0	208509.265625	7486.39697265625	-3665.224365234375
0.168	-0.0	-0.0	-0.0	-0.0	-0.0	-0.0	-9.051904678344728	4.551861763000488	-743.1163330078125	-0.0	-0.0	-0.0	-0.0	-0.0	-0.0	207961.8125	7758.1552734375	-3715.531494140625
0.1685	-0.0	-0.0	-0.0	-0.0	-0.0	-0.0	-9.286752700805664	4.179771423339844	-742.1348266601562	-0.0	-0.0	-0.0	-0.0	-0.0	-0.0	207619.875	8012.9794921875	-3886.01708984375
0.169	-0.0	-0.0	-0.0	-0.0	-0.0	-0.0	-9.85342788696289	3.8796517848968506	-743.810791015625	-0.0	-0.0	-0.0	-0.0	-0.0	-0.0	207353.96875	8378.474609375	-3857.979736328125
0.1695	-0.0	-0.0	-0.0	-0.0	-0.0	-0.0	-10.637761116027832	3.6621522903442383	-740.4334716796875	-0.0	-0.0	-0.0	-0.0	-0.0	-0.0	207367.578125	8405.830078125	-4161.078125
0.17	-0.0	-0.0	-0.0	-0.0	-0.0	-0.0	-11.199478149414062	2.949195146560669	-740.2896728515625	-0.0	-0.0	-0.0	-0.0	-0.0	-0.0	207388.421875	8676.9072265625	-4286.15966796875
0.1705	-0.0	-0.0	-0.0	-0.0	-0.0	-0.0	-11.918865203857422	2.042423725128174	-740.8565673828125	-0.0	-0.0	-0.0	-0.0	-0.0	-0.0	207657.109375	8842.9140625	-4422.591796875
0.171	-0.0	-0.0	-0.0	-0.0	-0.0	-0.0	-12.679329872131348	1.07243013381958	-742.6206665039062	-0.0	-0.0	-0.0	-0.0	-0.0	-0.0	207960.75	8732.7568359375	-4659.66650390625
0.1715	-0.0	-0.0	-0.0	-0.0	-0.0	-0.0	-12.728084564208984	0.8766791224479675	-745.67578125	-0.0	-0.0	-0.0	-0.0	-0.0	-0.0	208487.484375	8511.5283203125	-4822.857421875
0.17200000000000001	-0.0	-0.0	-0.0	-0.0	-0.0	-0.0	-12.600130081176758	1.3095712661743164	-747.7572021484375	-0.0	-0.0	-0.0	-0.0	-0.0	-0.0	209738.34375	8545.8515625	-4980.45703125
0.17250000000000001	-0.0	-0.0	-0.0	-0.0	-0.0	-0.0	-12.07765007019043	2.101412773132324	-749.6917114257812	-0.0	-0.0	-0.0	-0.0	-0.0	-0.0	210452.265625	8173.66015625	-4961.18505859375
0.17300000000000001	-0.0	-0.0	-0.0	-0.0	-0.0	-0.0	-11.520294189453123	2.5432467460632324	-752.4217529296875	-0.0	-0.0	-0.0	-0.0	-0.0	-0.0	210761.203125	7993.03369140625	-4876.498046875
0.17350000000000002	-0.0	-0.0	-0.0	-0.0	-0.0	-0.0	-10.362174034118652	3.119374990463257	-754.096435546875	-0.0	-0.0	-0.0	-0.0	-0.0	-0.0	211798.375	7686.98583984375	-4548.2158203125
0.17400000000000002	-0.0	-0.0	-0.0	-0.0	-0.0	-0.0	-9.03957176208496	3.329710006713867	-753.724853515625	-0.0	-0.0	-0.0	-0.0	-0.0	-0.0	211996.28125	7686.39306640625	-4467.0283203125
0.17450000000000002	-0.0	-0.0	-0.0	-0.0	-0.0	-0.0	-8.301766395568848	3.411972761154175	-751.6243286132812	-0.0	-0.0	-0.0	-0.0	-0.0	-0.0	211781.203125	7481.36669921875	-4343.47216796875
0.17500000000000002	-0.0	-0.0	-0.0	-0.0	-0.0	-0.0	-7.457541465759277	3.2620925903320312	-748.953125	-0.0	-0.0	-0.0	-0.0	-0.0	-0.0	210951.359375	7231.56103515625	-4064.546142578125
0.17550000000000002	-0.0	-0.0	-0.0	-0.0	-0.0	-0.0	-6.675552368164063	3.092684745788574	-746.981689453125	-0.0	-0.0	-0.0	-0.0	-0.0	-0.0	210740.84375	7317.83251953125	-3889.17236328125
0.176	-0.0	-0.0	-0.0	-0.0	-0.0	-0.0	-6.236927032470703	2.746462821960449	-745.906005859375	-0.0	-0.0	-0.0	-0.0	-0.0	-0.0	210459.09375	7123.58251953125	-3840.474853515625
0.1765	-0.0	-0.0	-0.0	-0.0	-0.0	-0.0	-5.695437431335449	2.2140517234802246	-744.8817138671875	-0.0	-0.0	-0.0	-0.0	-0.0	-0.0	210021.21875	7196.82861328125	-3767.986083984375
0.177	-0.0	-0.0	-0.0	-0.0	-0.0	-0.0	-5.405781269073486	1.882515788078308	-743.2778930664062	-0.0	-0.0	-0.0	-0.0	-0.0	-0.0	209513.296875	7103.23193359375	-3713.236083984375
0.1775	-0.0	-0.0	-0.0	-0.0	-0.0	-0.0	-5.14939022064209	1.7582072019577026	-741.97412109375	-0.0	-0.0	-0.0	-0.0	-0.0	-0.0	209797.59375	7021.638671875	-3827.11376953125
0.178	-0.0	-0.0	-0.0	-0.0	-0.0	-0.0	-5.330815315246582	1.9844834804534912	-743.419189453125	-0.0	-0.0	-0.0	-0.0	-0.0	-0.0	210299.75	6907.3955078125	-4078.43603515625
0.1785	-0.0	-0.0	-0.0	-0.0	-0.0	-0.0	-5.613000869750977	2.658998966217041	-744.8305053710938	-0.0	-0.0	-0.0	-0.0	-0.0	-0.0	211008.921875	6700.39794921875	-4127.73974609375
0.179	-0.0	-0.0	-0.0	-0.0	-0.0	-0.0	-5.228578090667725	2.555994272232056	-747.44921875	-0.0	-0.0	-0.0	-0.0	-0.0	-0.0	211959.265625	6357.8505859375	-4128.16259765625
0.1795	-0.0	-0.0	-0.0	-0.0	-0.0	-0.0	-5.020068168640137	2.570509910583496	-748.53955078125	-0.0	-0.0	-0.0	-0.0	-0.0	-0.0	212510.234375	6355.11474609375	-4172.13232421875
0.18	-0.0	-0.0	-0.0	-0.0	-0.0	-0.0	-5.017441749572754	2.795170307159424	-751.3434448242188	-0.0	-0.0	-0.0	-0.0	-0.0	-0.0	213706.4375	6052.26806640625	-4204.70947265625
0.1805	-0.0	-0.0	-0.0	-0.0	-0.0	-0.0	-4.811263084411621	3.5303030014038086	-754.25390625	-0.0	-0.0	-0.0	-0.0	-0.0	-0.0	214985.40625	5878.8837890625	-4175.50244140625
0.181	-0.0	-0.0	-0.0	-0.0	-0.0	-0.0	-4.169406890869141	3.792755365371704	-756.7319946289062	-0.0	-0.0	-0.0	-0.0	-0.0	-0.0	215602.796875	5580.95703125	-4008.352783203125
0.1815	-0.0	-0.0	-0.0	-0.0	-0.0	-0.0	-3.15119743347168	3.9252772331237793	-759.4322509765625	-0.0	-0.0	-0.0	-0.0	-0.0	-0.0	216184.03125	4916.40234375	-3857.97216796875
0.182	-0.0	-0.0	-0.0	-0.0	-0.0	-0.0	-3.0604782104492188	3.8787126541137695	-759.64794921875	-0.0	-0.0	-0.0	-0.0	-0.0	-0.0	216667.765625	4551.2783203125	-3595.553466796875
0.1825	-0.0	-0.0	-0.0	-0.0	-0.0	-0.0	-2.201754570007324	3.7696166038513184	-762.4843139648438	-0.0	-0.0	-0.0	-0.0	-0.0	-0.0	216967.28125	3904.7978515625	-3545.061767578125
0.183	-0.0	-0.0	-0.0	-0.0	-0.0	-0.0	-1.685504913330078	4.062797546386719	-763.3223266601562	-0.0	-0.0	-0.0	-0.0	-0.0	-0.0	217334.765625	3510.439208984375	-3378.603271484375
0.1835	-0.0	-0.0	-0.0	-0.0	-0.0	-0.0	-1.5756837129592896	3.810999631881714	-764.1895751953125	-0.0	-0.0	-0.0	-0.0	-0.0	-0.0	217874.875	3051.326171875	-3119.477783203125
0.184	-0.0	-0.0	-0.0	-0.0	-0.0	-0.0	-0.9030147790908812	4.188310623168945	-766.019775390625	-0.0	-0.0	-0.0	-0.0	-0.0	-0.0	217989.3125	2526.588134765625	-2951.1396484375
0.1845	-0.0	-0.0	-0.0	-0.0	-0.0	-0.0	-0.4540616869926452	4.5241241455078125	-766.4616088867188	-0.0	-0.0	-0.0	-0.0	-0.0	-0.0	218474.75	2071.63720703125	-2912.88427734375
0.185	-0.0	-0.0	-0.0	-0.0	-0.0	-0.0	-0.1635554134845733	5.038938045501709	-767.8753662109375	-0.0	-0.0	-0.0	-0.0	-0.0	-0.0	219242.921875	1655.4566650390625	-2529.55322265625
0.1855	-0.0	-0.0	-0.0	-0.0	-0.0	-0.0	0.0083344476297497	5.234236240386963	-769.0849609375	-0.0	-0.0	-0.0	-0.0	-0.0	-0.0	219336.265625	1340.1552734375	-2491.61328125
0.186	-0.0	-0.0	-0.0	-0.0	-0.0	-0.0	0.2218426167964935	5.422798156738281	-770.654541015625	-0.0	-0.0	-0.0	-0.0	-0.0	-0.0	219159.5	1191.09423828125	-2545.7958984375
0.1865	-0.0	-0.0	-0.0	-0.0	-0.0	-0.0	0.0787020400166511	5.350083827972412	-768.5084838867188	-0.0	-0.0	-0.0	-0.0	-0.0	-0.0	218895.359375	1149.8865966796875	-2452.533447265625
0.187	-0.0	-0.0	-0.0	-0.0	-0.0	-0.0	0.0799039229750633	5.034336090087891	-767.680419921875	-0.0	-0.0	-0.0	-0.0	-0.0	-0.0	218312.421875	1357.07861328125	-2312.45947265625
0.1875	-0.0	-0.0	-0.0	-0.0	-0.0	-0.0	-0.4364392161369324	4.573920249938965	-763.7201538085938	-0.0	-0.0	-0.0	-0.0	-0.0	-0.0	217312.0	888.4888916015625	-2133.15283203125
0.188	-0.0	-0.0	-0.0	-0.0	-0.0	-0.0	-0.2576682865619659	4.056382179260254	-759.9871826171875	-0.0	-0.0	-0.0	-0.0	-0.0	-0.0	216446.765625	901.716064453125	-2089.73876953125
0.1885	-0.0	-0.0	-0.0	-0.0	-0.0	-0.0	-0.2048361301422119	3.428750276565552	-755.1815795898438	-0.0	-0.0	-0.0	-0.0	-0.0	-0.0	215245.125	782.964111328125	-2024.1993408203125
0.189	-0.0	-0.0	-0.0	-0.0	-0.0	-0.0	-0.2578431963920593	3.0747532844543457	-754.3861083984375	-0.0	-0.0	-0.0	-0.0	-0.0	-0.0	214255.90625	681.8817138671875	-2012.3994140625
0.1895	-0.0	-0.0	-0.0	-0.0	-0.0	-0.0	0.3770208358764648	1.4003456830978394	-752.1277465820312	-0.0	-0.0	-0.0	-0.0	-0.0	-0.0	213551.1875	15.030656814575195	-1823.3914794921875
0.19	-0.0	-0.0	-0.0	-0.0	-0.0	-0.0	0.4012051820755005	0.8290013074874878	-749.6123046875	-0.0	-0.0	-0.0	-0.0	-0.0	-0.0	212903.546875	-113.92576599121094	-1645.1580810546875
